<?xml version="1.0" standalone="no"?>
<!DOCTYPE svg PUBLIC "-//W3C//DTD SVG 1.0//EN" "http://www.w3.org/TR/2001/REC-SVG-20010904/DTD/svg10.dtd">
<svg xmlns="http://www.w3.org/2000/svg" xmlns:xlink="http://www.w3.org/1999/xlink" id="body_1" width="125" height="125">

<defs>
        <clipPath  id="1">

            <path clip-rule="evenodd" d="M36 271.58594L343 271.58594L343 346L36 346L36 271.58594z" />        </clipPath>
        <clipPath  id="2">

            <path clip-rule="evenodd" d="M82.24219 109L101 109L101 133L82.24219 133L82.24219 109z" />        </clipPath>
        <clipPath  id="3">

            <path clip-rule="evenodd" d="M82.24219 109L183 109L183 245L82.24219 245L82.24219 109z" />        </clipPath>
        <clipPath  id="4">

            <path clip-rule="evenodd" d="M118 0L302.7422 0L302.7422 167L118 167L118 0z" />        </clipPath>
</defs>

<g transform="matrix(0.33333334 0 0 0.33333334 0 0)">
    <path d="M188.44531 0C 205.9961 0.5 222.78125 3.453125 239.125 10.097656C 246.75781 13.195312 255.42578 15.035156 263.64062 15.078125C 275.8164 15.128906 284.60156 21.320312 291.42188 29.421875C 307.92578 49.039062 322.08594 70.27734 327.19922 96.1875C 327.5664 98.09375 327.9297 100.046875 328.66406 101.828125C 337.27344 122.49609 335.39062 143.2539 329.08984 163.98047C 326.0586 173.91797 323.35547 184.04688 319.21875 193.52734C 311.5664 211.03906 299.32812 225.38281 285.21875 238.04688C 271.6797 250.20312 257.39062 261.3125 240.73047 269.14062C 225.47266 276.29688 209.67578 281.97656 192.82422 281.03906C 180.89062 280.3672 168.94922 277.29297 157.32031 274.13672C 112.57422 262.0039 79.01172 235.7461 58.695312 193.58984C 48.722656 172.90234 47.898438 150.92188 52.085938 128.8086C 55.023438 113.32422 58.94922 98 63.14453 82.78906C 64.97656 76.11328 67.29297 68.83203 71.61328 63.710938C 83.49609 49.652344 94.078125 34.429688 110.25 24.140625C 126.421875 13.835938 143.64062 6.933594 162.09766 2.953125C 170.6875 1.097656 179.65234 0.925781 188.44531 0" stroke="none" fill="#8C52FF" fill-rule="nonzero" />
    <path d="M359.4297 319.1328C 364.71875 328.63672 369.9961 337.91797 375.2539 346.98047C 357.05078 349.58203 338.57422 349.58203 320.375 346.98047C 320.375 327.34766 320.375 307.71875 320.375 288.08594C 338.57422 290.6836 357.05078 290.6836 375.2539 288.08594C 369.9961 298.65234 364.71875 309 359.4297 319.1328zM4.035156 288.08594C 9.292969 298.65234 14.570312 309 19.859375 319.1328C 14.570312 328.63672 9.292969 337.91797 4.035156 346.98047C 22.234375 349.58203 40.710938 349.58203 58.910156 346.98047C 58.910156 327.34766 58.910156 307.71875 58.910156 288.08594C 40.710938 290.6836 22.234375 290.6836 4.035156 288.08594z" stroke="none" fill="#8C52FF" fill-rule="nonzero" />
    <path d="M342.38672 308.54688L342.38672 333.4375L320.375 346.98047L320.375 308.54688L342.38672 308.54688zM36.902344 333.4375L58.910156 346.98047L58.910156 308.54688L36.902344 308.54688z" stroke="none" fill="#CB6CE6" fill-rule="nonzero" />
	<g clip-path="url(#1)" >
        <path d="M342.38672 271.59375C 342.38672 292.20703 342.38672 312.8203 342.38672 333.4375C 241.1875 349.51953 138.09766 349.51953 36.902344 333.4375C 36.902344 312.8203 36.902344 292.20703 36.902344 271.59375C 138.09766 287.67578 241.1875 287.67578 342.38672 271.59375z" stroke="none" fill="#8C52FF" fill-rule="nonzero" />
	</g>
    <path d="M206.33203 139.57422L201.83984 143.03516L200.82812 146.64844L197.80469 147.50781L194.07422 147.29297L195.08203 144.16797L198.44531 140.25L198.01562 135.13672L200.40234 129.96094L204.13281 132.07422L208.5625 133.23438L210.61328 138.83984L206.33203 139.57422z" stroke="none" fill="#FFFFFF" fill-rule="nonzero" />
    <path d="M212.90625 132.77734L205.6914 130.11328C 203.73438 126.28516 202.9375 124.57031 203.30469 124.96875L203.30469 124.96875L198.53516 119.734375L199.17969 119.21094L204.52734 122L206.85156 121.44922L213.69922 126.86719L213.88281 136.57422L212.90625 132.77734z" stroke="none" fill="#FFFFFF" fill-rule="nonzero" />
    <path d="M216.32812 112.90234L212.875 109.19922L206.63672 108.55469L201.83984 110.94531L198.50781 116.33203L199.66797 109.47266L202.91016 106.28906L207.64844 104.66797L214.52344 107.390625L218.07031 112.078125L220.30078 118.99609L219.6289 127.01953L218.6211 119.21094L216.32812 112.90234z" stroke="none" fill="#FFFFFF" fill-rule="nonzero" />
    <path d="M106.21875 96.88672L107.046875 121.66016L110.31641 121.38672L112.42578 96.734375L115.82031 93.05859L135.90234 94.34766L198.6914 104.66797L117.22656 85.12891L116.39844 83.015625L109.734375 81.30078L106.21875 96.88672z" stroke="none" fill="#FFFFFF" fill-rule="nonzero" />
    <path d="M93.59766 145.88281L99.52734 145.48438L100.47266 143.76953L95.09375 138.8086L89.13281 135.4414L83.50781 137.52344L84.02734 140.40234L88.18359 143.73828L93.59766 145.88281z" stroke="none" fill="#FFFFFF" fill-rule="nonzero" />
	<g clip-path="url(#2)" >
        <path d="M84.578125 132.77734L100.78125 109.47266L82.37891 132.71484L84.578125 132.77734z" stroke="none" fill="#FFFFFF" fill-rule="nonzero" />
	</g>
	<g clip-path="url(#3)" >
        <path d="M166.59375 215.27344L172.79688 185.8164L171.66797 141.625L182.97656 109.90234L155.1289 138.9336L152.01172 148.57812L133.91406 155.65234L124.86719 169.83203L107.90234 177.88281L105.36328 169.2461L102.39844 161.04297L104.9375 157.91797L102.39844 151.70312L96.80469 147.50781L89.37891 151.27344L87.26953 156.78516L88.125 162.75781L94.91016 166.55469L99.12891 172.80078L100.26172 182.14062L95.890625 186.94922L83.171875 203.66797L82.31641 222.65234L86.56641 236.80078L103.80469 244.73047L126.42578 242.46484L149.6289 232.26953L166.59375 215.27344z" stroke="none" fill="#FFFFFF" fill-rule="nonzero" />
	</g>
    <path d="M199.78906 165.75781L194.99219 162.11328L194.16406 155.10156L197.4375 159.7539L199.08594 161.5L202.08203 160.51953L218.34375 146.40234L204.28516 163.09375L199.78906 165.75781z" stroke="none" fill="#FFFFFF" fill-rule="nonzero" />
    <path d="M204.16016 214.26172L180.5625 222.71484L160.32812 233.85938L152.83594 239.67969L151.58594 254.98828L173.41016 242.4961L199.60547 235.91016L227.97266 227.1836L248.88281 227.79688L267.58984 224.67188L288.16406 232.17578L279.39062 207.52734L258.8164 203.11719L230.8164 206.51562L204.16016 214.26172z" stroke="none" fill="#FFFFFF" fill-rule="nonzero" />
	<g clip-path="url(#4)" >
        <path d="M211.07031 1.960938L226.14062 3.460938L242.0664 8.144531L256.89062 15.21875L271.47266 26.425781L286.66797 44.617188L298.86328 72.85156L300.9414 98.96875L295.77734 124.875C 296.08203 125.03125 291.25 134.67578 281.2578 153.84375L281.2578 153.84375L271.65625 166.03125L281.98828 154.21094L297.51953 124.875L302.6836 98.72656L300.6953 72.11719L288.16406 43.515625L272.26562 24.773438L257.7461 13.8125L242.4961 6.523438L226.38281 1.46875L210.64062 0L195.7539 0.488281L178.63672 3.828125L161.91797 11.207031L148.375 18.617188L136.42188 32L137.03516 36.960938L128.38281 44.492188L118.32422 69.44922L130.3086 45.289062L139.38672 37.847656L138.8086 32.183594L150.63672 19.351562L163.8711 12.339844L180.22656 5.480469L196.30469 2.601562L211.07031 1.960938z" stroke="none" fill="#FFFFFF" fill-rule="nonzero" />
	</g>
    <path d="M273.15234 203.17578L259.33594 163.39844L272.08594 203.30078L273.15234 203.17578z" stroke="none" fill="#FFFFFF" fill-rule="nonzero" />
	<g>
		<g transform="matrix(1 0 0 1 100.78278 312.22504)">
			<g>
                <path d="M1.0625 -3.640625C 1.132812 -4.222656 1.414062 -4.773438 1.90625 -5.296875C 2.394531 -5.828125 2.921875 -6.0625 3.484375 -6C 3.785156 -5.957031 4.113281 -5.789062 4.46875 -5.5C 4.832031 -5.21875 5.15625 -4.910156 5.4375 -4.578125C 5.71875 -4.253906 6.132812 -3.9375 6.6875 -3.625C 7.238281 -3.3125 7.835938 -3.113281 8.484375 -3.03125C 9.285156 -2.9375 10.007812 -3.023438 10.65625 -3.296875C 11.300781 -3.566406 11.664062 -4.039062 11.75 -4.71875C 11.84375 -5.394531 11.582031 -6.035156 10.96875 -6.640625C 10.363281 -7.253906 9.601562 -7.832031 8.6875 -8.375C 7.769531 -8.914062 6.859375 -9.507812 5.953125 -10.15625C 5.046875 -10.800781 4.316406 -11.648438 3.765625 -12.703125C 3.210938 -13.765625 3.019531 -14.96875 3.1875 -16.3125C 3.457031 -18.457031 4.429688 -19.96875 6.109375 -20.84375C 7.796875 -21.71875 9.742188 -22.019531 11.953125 -21.75C 12.484375 -21.675781 13.039062 -21.570312 13.625 -21.4375C 14.207031 -21.300781 14.851562 -21.097656 15.5625 -20.828125C 16.269531 -20.566406 16.832031 -20.207031 17.25 -19.75C 17.664062 -19.300781 17.835938 -18.796875 17.765625 -18.234375C 17.703125 -17.691406 17.460938 -17.15625 17.046875 -16.625C 16.640625 -16.09375 16.132812 -15.863281 15.53125 -15.9375C 15.289062 -15.96875 14.789062 -16.226562 14.03125 -16.71875C 13.269531 -17.21875 12.40625 -17.53125 11.4375 -17.65625C 10.382812 -17.78125 9.578125 -17.691406 9.015625 -17.390625C 8.460938 -17.085938 8.15625 -16.679688 8.09375 -16.171875C 8.03125 -15.691406 8.21875 -15.226562 8.65625 -14.78125C 9.09375 -14.332031 9.65625 -13.921875 10.34375 -13.546875C 11.039062 -13.171875 11.789062 -12.707031 12.59375 -12.15625C 13.394531 -11.613281 14.125 -11.03125 14.78125 -10.40625C 15.445312 -9.789062 15.960938 -8.976562 16.328125 -7.96875C 16.691406 -6.957031 16.796875 -5.835938 16.640625 -4.609375C 16.367188 -2.429688 15.445312 -0.828125 13.875 0.203125C 12.300781 1.234375 10.359375 1.601562 8.046875 1.3125C 6.035156 1.0625 4.332031 0.429688 2.9375 -0.578125C 1.550781 -1.585938 0.925781 -2.609375 1.0625 -3.640625z" stroke="none" fill="#FFFFFF" fill-rule="nonzero" />
			</g>
		</g>
	</g>
	<g>
		<g transform="matrix(1 0 0 1 117.54727 314.26807)">
			<g>
                <path d="M1.828125 -1.3125L3.921875 -21.09375C 3.960938 -21.570312 4.234375 -21.910156 4.734375 -22.109375C 5.242188 -22.304688 5.828125 -22.367188 6.484375 -22.296875C 7.148438 -22.234375 7.707031 -22.050781 8.15625 -21.75C 8.613281 -21.445312 8.820312 -21.054688 8.78125 -20.578125L8.78125 -20.578125L6.6875 -0.796875C 6.632812 -0.328125 6.351562 0.0078125 5.84375 0.21875C 5.34375 0.425781 4.757812 0.492188 4.09375 0.421875C 3.4375 0.359375 2.878906 0.171875 2.421875 -0.140625C 1.972656 -0.453125 1.773438 -0.84375 1.828125 -1.3125z" stroke="none" fill="#FFFFFF" fill-rule="nonzero" />
			</g>
		</g>
	</g>
	<g>
		<g transform="matrix(1 0 0 1 125.96456 315.1854)">
			<g>
                <path d="M1.8125 -1.359375L3.546875 -21.171875C 3.585938 -21.648438 3.859375 -21.988281 4.359375 -22.1875C 4.859375 -22.394531 5.441406 -22.46875 6.109375 -22.40625C 6.773438 -22.34375 7.332031 -22.164062 7.78125 -21.875C 8.226562 -21.59375 8.429688 -21.210938 8.390625 -20.734375L8.390625 -20.734375L6.90625 -3.65625L14.03125 -3.046875C 14.457031 -3.003906 14.773438 -2.765625 14.984375 -2.328125C 15.203125 -1.890625 15.285156 -1.378906 15.234375 -0.796875C 15.179688 -0.222656 15.007812 0.257812 14.71875 0.65625C 14.4375 1.050781 14.082031 1.226562 13.65625 1.1875L13.65625 1.1875L3.796875 0.328125C 3.210938 0.273438 2.722656 0.101562 2.328125 -0.1875C 1.941406 -0.488281 1.769531 -0.878906 1.8125 -1.359375z" stroke="none" fill="#FFFFFF" fill-rule="nonzero" />
			</g>
		</g>
	</g>
	<g>
		<g transform="matrix(1 0 0 1 141.59091 316.56857)">
			<g>
                <path d="M1.421875 -20.8125C 1.453125 -21.351562 1.816406 -21.796875 2.515625 -22.140625C 3.222656 -22.492188 3.941406 -22.648438 4.671875 -22.609375C 5.554688 -22.554688 6.0625 -22.222656 6.1875 -21.609375L6.1875 -21.609375L9.578125 -5.3125L14.90625 -21.0625C 15.113281 -21.65625 15.664062 -21.925781 16.5625 -21.875C 17.289062 -21.832031 17.976562 -21.585938 18.625 -21.140625C 19.28125 -20.703125 19.59375 -20.210938 19.5625 -19.671875C 19.550781 -19.609375 19.519531 -19.5 19.46875 -19.34375L19.46875 -19.34375L12.484375 -0.671875C 12.296875 -0.160156 11.894531 0.210938 11.28125 0.453125C 10.664062 0.703125 9.972656 0.800781 9.203125 0.75C 8.429688 0.707031 7.753906 0.523438 7.171875 0.203125C 6.597656 -0.109375 6.242188 -0.53125 6.109375 -1.0625L6.109375 -1.0625L1.453125 -20.453125C 1.421875 -20.628906 1.410156 -20.75 1.421875 -20.8125z" stroke="none" fill="#FFFFFF" fill-rule="nonzero" />
			</g>
		</g>
	</g>
	<g>
		<g transform="matrix(1 0 0 1 160.21338 317.67102)">
			<g>
                <path d="M1.75 -1.421875L2.578125 -21.296875C 2.597656 -21.773438 2.851562 -22.128906 3.34375 -22.359375C 3.832031 -22.597656 4.410156 -22.703125 5.078125 -22.671875C 5.742188 -22.640625 6.3125 -22.488281 6.78125 -22.21875C 7.25 -21.945312 7.472656 -21.570312 7.453125 -21.09375L7.453125 -21.09375L6.625 -1.21875C 6.601562 -0.738281 6.347656 -0.378906 5.859375 -0.140625C 5.367188 0.0976562 4.789062 0.203125 4.125 0.171875C 3.457031 0.140625 2.890625 -0.0078125 2.421875 -0.28125C 1.953125 -0.5625 1.726562 -0.941406 1.75 -1.421875z" stroke="none" fill="#FFFFFF" fill-rule="nonzero" />
			</g>
		</g>
	</g>
	<g>
		<g transform="matrix(1 0 0 1 168.70322 318.0799)">
			<g>
                <path d="M1.75 -7.15625L2.0625 -21.359375C 2.070312 -21.835938 2.3125 -22.195312 2.78125 -22.4375C 3.257812 -22.675781 3.84375 -22.785156 4.53125 -22.765625C 5.195312 -22.753906 5.765625 -22.617188 6.234375 -22.359375C 6.710938 -22.097656 6.945312 -21.726562 6.9375 -21.25L6.9375 -21.25L6.625 -7.046875C 6.582031 -4.960938 7.5625 -3.898438 9.5625 -3.859375C 11.570312 -3.816406 12.597656 -4.835938 12.640625 -6.921875L12.640625 -6.921875L12.953125 -21.125C 12.960938 -21.601562 13.203125 -21.960938 13.671875 -22.203125C 14.148438 -22.441406 14.734375 -22.550781 15.421875 -22.53125C 16.085938 -22.519531 16.65625 -22.382812 17.125 -22.125C 17.601562 -21.863281 17.835938 -21.492188 17.828125 -21.015625L17.828125 -21.015625L17.515625 -6.8125C 17.460938 -4.269531 16.703125 -2.421875 15.234375 -1.265625C 13.773438 -0.109375 11.859375 0.441406 9.484375 0.390625C 7.078125 0.335938 5.171875 -0.296875 3.765625 -1.515625C 2.367188 -2.734375 1.695312 -4.613281 1.75 -7.15625z" stroke="none" fill="#FFFFFF" fill-rule="nonzero" />
			</g>
		</g>
	</g>
	<g>
		<g transform="matrix(1 0 0 1 187.87326 318.43207)">
			<g>
			</g>
		</g>
	</g>
	<g>
		<g transform="matrix(1 0 0 1 194.34702 318.50262)">
			<g>
                <path d="M1.328125 -7.203125L1.203125 -15.5C 1.160156 -18.039062 1.828125 -19.914062 3.203125 -21.125C 4.578125 -22.34375 6.425781 -22.96875 8.75 -23C 11.082031 -23.039062 12.957031 -22.476562 14.375 -21.3125C 15.789062 -20.144531 16.519531 -18.289062 16.5625 -15.75L16.5625 -15.75L16.6875 -7.453125C 16.726562 -4.910156 16.054688 -3.035156 14.671875 -1.828125C 13.296875 -0.617188 11.441406 0.00390625 9.109375 0.046875C 6.785156 0.078125 4.914062 -0.484375 3.5 -1.640625C 2.09375 -2.804688 1.367188 -4.660156 1.328125 -7.203125zM6.203125 -7.28125C 6.234375 -5.195312 7.179688 -4.171875 9.046875 -4.203125C 10.921875 -4.234375 11.84375 -5.289062 11.8125 -7.375L11.8125 -7.375L11.6875 -15.671875C 11.644531 -17.753906 10.6875 -18.78125 8.8125 -18.75C 6.945312 -18.71875 6.035156 -17.660156 6.078125 -15.578125z" stroke="none" fill="#FFFFFF" fill-rule="nonzero" />
			</g>
		</g>
	</g>
	<g>
		<g transform="matrix(1 0 0 1 212.8971 318.2055)">
			<g>
                <path d="M1.625 -1.578125L0.78125 -21.453125C 0.757812 -21.847656 0.910156 -22.195312 1.234375 -22.5C 1.554688 -22.800781 1.988281 -22.96875 2.53125 -23L2.53125 -23L9 -23.265625C 11.226562 -23.359375 13.035156 -22.851562 14.421875 -21.75C 15.816406 -20.65625 16.566406 -18.867188 16.671875 -16.390625L16.671875 -16.390625L16.6875 -16.234375C 16.789062 -13.753906 16.160156 -11.898438 14.796875 -10.671875C 13.441406 -9.441406 11.609375 -8.773438 9.296875 -8.671875L9.296875 -8.671875L6.203125 -8.546875L6.5 -1.78125C 6.519531 -1.300781 6.296875 -0.921875 5.828125 -0.640625C 5.359375 -0.359375 4.789062 -0.203125 4.125 -0.171875C 3.457031 -0.148438 2.878906 -0.257812 2.390625 -0.5C 1.898438 -0.738281 1.644531 -1.097656 1.625 -1.578125zM6.046875 -12.28125L9.140625 -12.40625C 11.015625 -12.488281 11.910156 -13.570312 11.828125 -15.65625L11.828125 -15.65625L11.8125 -16C 11.71875 -18.082031 10.734375 -19.082031 8.859375 -19L8.859375 -19L5.765625 -18.875z" stroke="none" fill="#FFFFFF" fill-rule="nonzero" />
			</g>
		</g>
	</g>
	<g>
		<g transform="matrix(1 0 0 1 230.99574 317.43256)">
			<g>
                <path d="M1.578125 -1.625L0.203125 -21.46875C 0.171875 -21.863281 0.285156 -22.210938 0.546875 -22.515625C 0.804688 -22.816406 1.15625 -22.984375 1.59375 -23.015625L1.59375 -23.015625L8.046875 -23.46875C 13.160156 -23.820312 15.875 -21.773438 16.1875 -17.328125C 16.414062 -14.085938 15.304688 -11.890625 12.859375 -10.734375L12.859375 -10.734375L17.140625 -4.109375C 17.253906 -3.972656 17.320312 -3.789062 17.34375 -3.5625C 17.382812 -2.957031 17.097656 -2.359375 16.484375 -1.765625C 15.867188 -1.179688 15.195312 -0.863281 14.46875 -0.8125C 13.738281 -0.769531 13.195312 -1.039062 12.84375 -1.625L12.84375 -1.625L8 -9.625L5.921875 -9.484375L6.4375 -1.953125C 6.476562 -1.472656 6.265625 -1.085938 5.796875 -0.796875C 5.335938 -0.503906 4.773438 -0.332031 4.109375 -0.28125C 3.453125 -0.238281 2.875 -0.332031 2.375 -0.5625C 1.882812 -0.789062 1.617188 -1.144531 1.578125 -1.625zM5.65625 -13.21875L8.75 -13.4375C 9.664062 -13.5 10.347656 -13.769531 10.796875 -14.25C 11.242188 -14.738281 11.429688 -15.5 11.359375 -16.53125C 11.285156 -17.570312 10.992188 -18.296875 10.484375 -18.703125C 9.972656 -19.117188 9.257812 -19.296875 8.34375 -19.234375L8.34375 -19.234375L5.25 -19.015625z" stroke="none" fill="#FFFFFF" fill-rule="nonzero" />
			</g>
		</g>
	</g>
	<g>
		<g transform="matrix(1 0 0 1 249.52524 316.12677)">
			<g>
                <path d="M1.546875 -1.65625L-0.359375 -21.421875C -0.398438 -21.890625 -0.226562 -22.273438 0.15625 -22.578125C 0.539062 -22.878906 1.023438 -23.054688 1.609375 -23.109375L1.609375 -23.109375L12.703125 -24.1875C 13.171875 -24.226562 13.550781 -24.054688 13.84375 -23.671875C 14.132812 -23.285156 14.304688 -22.8125 14.359375 -22.25C 14.410156 -21.644531 14.328125 -21.125 14.109375 -20.6875C 13.890625 -20.25 13.554688 -20.007812 13.109375 -19.96875L13.109375 -19.96875L4.75 -19.15625L5.25 -13.890625L9.9375 -14.34375C 10.382812 -14.382812 10.753906 -14.226562 11.046875 -13.875C 11.347656 -13.53125 11.523438 -13.101562 11.578125 -12.59375C 11.617188 -12.113281 11.53125 -11.671875 11.3125 -11.265625C 11.101562 -10.867188 10.765625 -10.648438 10.296875 -10.609375L10.296875 -10.609375L5.609375 -10.15625L6.125 -4.859375L14.484375 -5.671875C 14.929688 -5.710938 15.304688 -5.535156 15.609375 -5.140625C 15.910156 -4.753906 16.085938 -4.257812 16.140625 -3.65625C 16.191406 -3.101562 16.113281 -2.601562 15.90625 -2.15625C 15.695312 -1.71875 15.359375 -1.476562 14.890625 -1.4375L14.890625 -1.4375L3.796875 -0.359375C 3.210938 -0.304688 2.703125 -0.390625 2.265625 -0.609375C 1.828125 -0.828125 1.585938 -1.175781 1.546875 -1.65625z" stroke="none" fill="#FFFFFF" fill-rule="nonzero" />
			</g>
		</g>
	</g>
	<g>
		<g transform="matrix(1 0 0 1 266.61697 314.48767)">
			<g>
                <path d="M-0.125 -2C -0.125 -2.0625 -0.113281 -2.175781 -0.09375 -2.34375L-0.09375 -2.34375L3.34375 -22C 3.445312 -22.53125 3.773438 -22.972656 4.328125 -23.328125C 4.890625 -23.679688 5.550781 -23.90625 6.3125 -24C 7.082031 -24.09375 7.78125 -24.035156 8.40625 -23.828125C 9.03125 -23.617188 9.457031 -23.269531 9.6875 -22.78125L9.6875 -22.78125L17.8125 -4.546875C 17.875 -4.390625 17.90625 -4.28125 17.90625 -4.21875C 17.976562 -3.675781 17.703125 -3.164062 17.078125 -2.6875C 16.453125 -2.21875 15.78125 -1.941406 15.0625 -1.859375C 14.164062 -1.742188 13.597656 -1.976562 13.359375 -2.5625L13.359375 -2.5625L11.828125 -6.3125L5.265625 -5.5L4.703125 -1.5C 4.609375 -0.875 4.113281 -0.503906 3.21875 -0.390625C 2.5 -0.304688 1.78125 -0.414062 1.0625 -0.71875C 0.34375 -1.03125 -0.0507812 -1.457031 -0.125 -2zM5.8125 -9.359375L10.34375 -9.921875L7.078125 -17.953125z" stroke="none" fill="#FFFFFF" fill-rule="nonzero" />
			</g>
		</g>
	</g>
	<g>
		<g transform="matrix(1 0 0 1 100.16571 330.36124)">
			<g>
                <path d="M6.671875 -1.984375C 6.609375 -1.171875 6.265625 -0.554688 5.640625 -0.140625C 5.015625 0.265625 4.191406 0.429688 3.171875 0.359375C 2.085938 0.273438 1.257812 0.0703125 0.6875 -0.25L0.6875 -0.25L0.765625 -1.296875C 1.140625 -1.097656 1.546875 -0.9375 1.984375 -0.8125C 2.429688 -0.6875 2.867188 -0.609375 3.296875 -0.578125C 4.015625 -0.523438 4.566406 -0.617188 4.953125 -0.859375C 5.335938 -1.109375 5.546875 -1.472656 5.578125 -1.953125C 5.597656 -2.273438 5.550781 -2.539062 5.4375 -2.75C 5.320312 -2.96875 5.117188 -3.175781 4.828125 -3.375C 4.546875 -3.570312 4.101562 -3.800781 3.5 -4.0625C 2.675781 -4.4375 2.09375 -4.847656 1.75 -5.296875C 1.40625 -5.742188 1.257812 -6.304688 1.3125 -6.984375C 1.363281 -7.703125 1.671875 -8.25 2.234375 -8.625C 2.804688 -9.007812 3.53125 -9.164062 4.40625 -9.09375C 5.320312 -9.03125 6.15625 -8.800781 6.90625 -8.40625L6.90625 -8.40625L6.5 -7.5C 5.757812 -7.875 5.03125 -8.09375 4.3125 -8.15625C 3.75 -8.195312 3.296875 -8.101562 2.953125 -7.875C 2.617188 -7.65625 2.4375 -7.328125 2.40625 -6.890625C 2.382812 -6.566406 2.421875 -6.296875 2.515625 -6.078125C 2.617188 -5.867188 2.800781 -5.671875 3.0625 -5.484375C 3.332031 -5.296875 3.75 -5.070312 4.3125 -4.8125C 5.257812 -4.40625 5.898438 -3.988281 6.234375 -3.5625C 6.566406 -3.132812 6.710938 -2.609375 6.671875 -1.984375z" stroke="none" fill="#FFFFFF" fill-rule="nonzero" />
			</g>
		</g>
	</g>
	<g>
		<g transform="matrix(1 0 0 1 110.593056 331.12164)">
			<g>
                <path d="M9.59375 -4.03125C 9.5 -2.5625 9.046875 -1.425781 8.234375 -0.625C 7.429688 0.175781 6.363281 0.535156 5.03125 0.453125C 3.675781 0.359375 2.65625 -0.125 1.96875 -1C 1.289062 -1.882812 1 -3.082031 1.09375 -4.59375C 1.1875 -6.101562 1.628906 -7.25 2.421875 -8.03125C 3.222656 -8.820312 4.300781 -9.171875 5.65625 -9.078125C 6.988281 -8.992188 8 -8.503906 8.6875 -7.609375C 9.382812 -6.710938 9.6875 -5.519531 9.59375 -4.03125zM2.234375 -4.5C 2.148438 -3.257812 2.351562 -2.296875 2.84375 -1.609375C 3.332031 -0.929688 4.082031 -0.554688 5.09375 -0.484375C 6.125 -0.421875 6.921875 -0.695312 7.484375 -1.3125C 8.046875 -1.9375 8.367188 -2.867188 8.453125 -4.109375C 8.535156 -5.359375 8.332031 -6.320312 7.84375 -7C 7.363281 -7.675781 6.613281 -8.046875 5.59375 -8.109375C 4.570312 -8.179688 3.773438 -7.90625 3.203125 -7.28125C 2.640625 -6.664062 2.316406 -5.738281 2.234375 -4.5z" stroke="none" fill="#FFFFFF" fill-rule="nonzero" />
			</g>
		</g>
	</g>
	<g>
		<g transform="matrix(1 0 0 1 124.007645 331.9538)">
			<g>
                <path d="M2.359375 0.125L1.28125 0.0625L1.78125 -9.1875L6.921875 -8.90625L6.875 -7.953125L2.8125 -8.171875L2.625 -4.796875L6.4375 -4.59375L6.390625 -3.640625L2.578125 -3.84375L2.359375 0.125z" stroke="none" fill="#FFFFFF" fill-rule="nonzero" />
			</g>
		</g>
	</g>
	<g>
		<g transform="matrix(1 0 0 1 134.01804 332.48267)">
			<g>
                <path d="M4.125 0.1875L3.046875 0.140625L3.421875 -8.15625L0.484375 -8.296875L0.53125 -9.25L7.484375 -8.921875L7.4375 -7.96875L4.5 -8.109375L4.125 0.1875z" stroke="none" fill="#FFFFFF" fill-rule="nonzero" />
			</g>
		</g>
	</g>
	<g>
		<g transform="matrix(1 0 0 1 144.52286 332.95718)">
			<g>
                <path d="M9.359375 0.328125L8.296875 0.296875L6.640625 -5.984375C 6.566406 -6.265625 6.484375 -6.613281 6.390625 -7.03125C 6.296875 -7.457031 6.242188 -7.710938 6.234375 -7.796875C 6.117188 -7.242188 5.953125 -6.640625 5.734375 -5.984375L5.734375 -5.984375L3.703125 0.125L2.640625 0.09375L0.5 -9.265625L1.640625 -9.21875L2.90625 -3.453125C 3.070312 -2.640625 3.191406 -1.90625 3.265625 -1.25C 3.410156 -2.007812 3.609375 -2.765625 3.859375 -3.515625L3.859375 -3.515625L5.71875 -9.078125L6.859375 -9.03125L8.40625 -3.28125C 8.582031 -2.625 8.722656 -1.878906 8.828125 -1.046875C 8.929688 -1.648438 9.113281 -2.378906 9.375 -3.234375L9.375 -3.234375L11.03125 -8.890625L12.171875 -8.859375L9.359375 0.328125z" stroke="none" fill="#FFFFFF" fill-rule="nonzero" />
			</g>
		</g>
	</g>
	<g>
		<g transform="matrix(1 0 0 1 159.8692 333.46432)">
			<g>
                <path d="M7.09375 0.171875L6.03125 -2.8125L2.3125 -2.90625L1.09375 0.03125L0 0L3.890625 -9.21875L4.796875 -9.203125L8.21875 0.203125L7.09375 0.171875zM5.703125 -3.78125L4.6875 -6.6875C 4.5625 -7.039062 4.429688 -7.488281 4.296875 -8.03125C 4.191406 -7.625 4.046875 -7.179688 3.859375 -6.703125L3.859375 -6.703125L2.703125 -3.859375z" stroke="none" fill="#FFFFFF" fill-rule="nonzero" />
			</g>
		</g>
	</g>
	<g>
		<g transform="matrix(1 0 0 1 171.41002 333.72336)">
			<g>
                <path d="M2.421875 -3.828125L2.359375 0.03125L1.28125 0.015625L1.421875 -9.25L3.953125 -9.203125C 5.085938 -9.191406 5.921875 -8.960938 6.453125 -8.515625C 6.992188 -8.078125 7.257812 -7.421875 7.25 -6.546875C 7.226562 -5.316406 6.59375 -4.5 5.34375 -4.09375L5.34375 -4.09375L7.796875 0.109375L6.53125 0.09375L4.34375 -3.796875L2.421875 -3.828125zM2.421875 -4.75L3.890625 -4.71875C 4.648438 -4.707031 5.207031 -4.847656 5.5625 -5.140625C 5.925781 -5.441406 6.113281 -5.894531 6.125 -6.5C 6.132812 -7.113281 5.960938 -7.554688 5.609375 -7.828125C 5.253906 -8.109375 4.675781 -8.257812 3.875 -8.28125L3.875 -8.28125L2.484375 -8.296875z" stroke="none" fill="#FFFFFF" fill-rule="nonzero" />
			</g>
		</g>
	</g>
	<g>
		<g transform="matrix(1 0 0 1 182.76085 333.86972)">
			<g>
                <path d="M6.4375 0.03125L1.28125 0L1.328125 -9.265625L6.484375 -9.234375L6.484375 -8.28125L2.40625 -8.296875L2.390625 -5.3125L6.21875 -5.296875L6.203125 -4.34375L2.375 -4.359375L2.359375 -0.953125L6.4375 -0.9375L6.4375 0.03125z" stroke="none" fill="#FFFFFF" fill-rule="nonzero" />
			</g>
		</g>
	</g>
	<g>
		<g transform="matrix(1 0 0 1 193.29924 333.9074)">
			<g>
			</g>
		</g>
	</g>
	<g>
		<g transform="matrix(1 0 0 1 199.98933 333.8907)">
			<g>
                <path d="M6.4375 -0.0625L1.28125 -0.015625L1.203125 -9.28125L6.359375 -9.328125L6.359375 -8.375L2.28125 -8.328125L2.3125 -5.34375L6.140625 -5.390625L6.15625 -4.4375L2.328125 -4.390625L2.34375 -0.984375L6.421875 -1.03125L6.4375 -0.0625z" stroke="none" fill="#FFFFFF" fill-rule="nonzero" />
			</g>
		</g>
	</g>
	<g>
		<g transform="matrix(1 0 0 1 210.53853 333.78708)">
			<g>
                <path d="M8.515625 -0.15625L7.28125 -0.140625L2.078125 -7.828125L2.03125 -7.828125C 2.101562 -6.910156 2.148438 -6.070312 2.171875 -5.3125L2.171875 -5.3125L2.265625 -0.046875L1.28125 -0.03125L1.109375 -9.296875L2.3125 -9.3125L7.515625 -1.65625L7.5625 -1.65625C 7.550781 -1.769531 7.523438 -2.132812 7.484375 -2.75C 7.453125 -3.375 7.429688 -3.820312 7.421875 -4.09375L7.421875 -4.09375L7.328125 -9.40625L8.34375 -9.421875L8.515625 -0.15625z" stroke="none" fill="#FFFFFF" fill-rule="nonzero" />
			</g>
		</g>
	</g>
	<g>
		<g transform="matrix(1 0 0 1 223.65721 333.52374)">
			<g>
                <path d="M5.203125 -5.015625L8.359375 -5.109375L8.484375 -0.59375C 8.003906 -0.425781 7.507812 -0.296875 7 -0.203125C 6.5 -0.109375 5.914062 -0.0507812 5.25 -0.03125C 3.84375 0.0078125 2.738281 -0.367188 1.9375 -1.171875C 1.132812 -1.984375 0.707031 -3.144531 0.65625 -4.65625C 0.632812 -5.613281 0.804688 -6.460938 1.171875 -7.203125C 1.535156 -7.941406 2.070312 -8.515625 2.78125 -8.921875C 3.5 -9.328125 4.34375 -9.539062 5.3125 -9.5625C 6.300781 -9.59375 7.226562 -9.441406 8.09375 -9.109375L8.09375 -9.109375L7.703125 -8.140625C 6.859375 -8.472656 6.050781 -8.625 5.28125 -8.59375C 4.144531 -8.5625 3.269531 -8.203125 2.65625 -7.515625C 2.050781 -6.828125 1.765625 -5.890625 1.796875 -4.703125C 1.835938 -3.453125 2.171875 -2.507812 2.796875 -1.875C 3.421875 -1.238281 4.328125 -0.9375 5.515625 -0.96875C 6.148438 -0.988281 6.773438 -1.085938 7.390625 -1.265625L7.390625 -1.265625L7.3125 -4.109375L5.234375 -4.046875L5.203125 -5.015625z" stroke="none" fill="#FFFFFF" fill-rule="nonzero" />
			</g>
		</g>
	</g>
	<g>
		<g transform="matrix(1 0 0 1 236.42538 333.12366)">
			<g>
                <path d="M1.28125 -0.046875L0.9375 -9.3125L2.015625 -9.359375L2.359375 -0.09375L1.28125 -0.046875z" stroke="none" fill="#FFFFFF" fill-rule="nonzero" />
			</g>
		</g>
	</g>
	<g>
		<g transform="matrix(1 0 0 1 243.36281 332.86273)">
			<g>
                <path d="M8.5 -0.390625L7.28125 -0.328125L1.859375 -7.859375L1.8125 -7.859375C 1.914062 -6.960938 1.988281 -6.132812 2.03125 -5.375L2.03125 -5.375L2.265625 -0.109375L1.28125 -0.0625L0.859375 -9.3125L2.0625 -9.359375L7.46875 -1.859375L7.515625 -1.859375C 7.492188 -1.972656 7.457031 -2.335938 7.40625 -2.953125C 7.351562 -3.578125 7.316406 -4.023438 7.296875 -4.296875L7.296875 -4.296875L7.0625 -9.59375L8.078125 -9.640625L8.5 -0.390625z" stroke="none" fill="#FFFFFF" fill-rule="nonzero" />
			</g>
		</g>
	</g>
	<g>
		<g transform="matrix(1 0 0 1 256.4654 332.24042)">
			<g>
                <path d="M6.421875 -0.359375L1.28125 -0.078125L0.765625 -9.328125L5.90625 -9.609375L5.953125 -8.65625L1.890625 -8.421875L2.0625 -5.4375L5.875 -5.65625L5.921875 -4.71875L2.109375 -4.5L2.3125 -1.09375L6.375 -1.328125L6.421875 -0.359375z" stroke="none" fill="#FFFFFF" fill-rule="nonzero" />
			</g>
		</g>
	</g>
	<g>
		<g transform="matrix(1 0 0 1 266.99356 331.64093)">
			<g>
                <path d="M6.421875 -0.40625L1.28125 -0.078125L0.6875 -9.328125L5.828125 -9.65625L5.890625 -8.703125L1.828125 -8.453125L2.015625 -5.46875L5.828125 -5.703125L5.890625 -4.75L2.078125 -4.515625L2.296875 -1.125L6.359375 -1.375L6.421875 -0.40625z" stroke="none" fill="#FFFFFF" fill-rule="nonzero" />
			</g>
		</g>
	</g>
	<g>
		<g transform="matrix(1 0 0 1 277.51758 330.95065)">
			<g>
                <path d="M2.078125 -4.015625L2.359375 -0.171875L1.28125 -0.09375L0.609375 -9.328125L3.125 -9.515625C 4.257812 -9.597656 5.113281 -9.445312 5.6875 -9.0625C 6.269531 -8.675781 6.59375 -8.046875 6.65625 -7.171875C 6.738281 -5.941406 6.171875 -5.066406 4.953125 -4.546875L4.953125 -4.546875L7.78125 -0.578125L6.515625 -0.484375L3.984375 -4.15625L2.078125 -4.015625zM2.015625 -4.9375L3.46875 -5.046875C 4.226562 -5.097656 4.769531 -5.285156 5.09375 -5.609375C 5.425781 -5.941406 5.570312 -6.410156 5.53125 -7.015625C 5.488281 -7.628906 5.273438 -8.054688 4.890625 -8.296875C 4.515625 -8.546875 3.925781 -8.644531 3.125 -8.59375L3.125 -8.59375L1.75 -8.484375z" stroke="none" fill="#FFFFFF" fill-rule="nonzero" />
			</g>
		</g>
	</g>
</g>
</svg>