<svg xmlns="http://www.w3.org/2000/svg" xmlns:xlink="http://www.w3.org/1999/xlink" width="500" zoomAndPan="magnify" viewBox="0 0 375 374.999991" height="500" preserveAspectRatio="xMidYMid meet" version="1.0"><defs><g/><clipPath id="1610c50979"><path d="M 36 271.585938 L 343 271.585938 L 343 346 L 36 346 Z M 36 271.585938 " clip-rule="nonzero"/></clipPath><clipPath id="1af360083d"><path d="M 82.242188 109 L 101 109 L 101 133 L 82.242188 133 Z M 82.242188 109 " clip-rule="nonzero"/></clipPath><clipPath id="f4004bbf14"><path d="M 82.242188 109 L 183 109 L 183 245 L 82.242188 245 Z M 82.242188 109 " clip-rule="nonzero"/></clipPath><clipPath id="a91e481282"><path d="M 118 0 L 302.742188 0 L 302.742188 167 L 118 167 Z M 118 0 " clip-rule="nonzero"/></clipPath></defs><path fill="#8c52ff" d="M 188.445312 0 C 205.996094 0.5 222.78125 3.453125 239.125 10.097656 C 246.757812 13.195312 255.425781 15.035156 263.640625 15.078125 C 275.816406 15.128906 284.601562 21.320312 291.421875 29.421875 C 307.925781 49.039062 322.085938 70.277344 327.199219 96.1875 C 327.566406 98.09375 327.929688 100.046875 328.664062 101.828125 C 337.273438 122.496094 335.390625 143.253906 329.089844 163.980469 C 326.058594 173.917969 323.355469 184.046875 319.21875 193.527344 C 311.566406 211.039062 299.328125 225.382812 285.21875 238.046875 C 271.679688 250.203125 257.390625 261.3125 240.730469 269.140625 C 225.472656 276.296875 209.675781 281.976562 192.824219 281.039062 C 180.890625 280.367188 168.949219 277.292969 157.320312 274.136719 C 112.574219 262.003906 79.011719 235.746094 58.695312 193.589844 C 48.722656 172.902344 47.898438 150.921875 52.085938 128.808594 C 55.023438 113.324219 58.949219 98 63.144531 82.789062 C 64.976562 76.113281 67.292969 68.832031 71.613281 63.710938 C 83.496094 49.652344 94.078125 34.429688 110.25 24.140625 C 126.421875 13.835938 143.640625 6.933594 162.097656 2.953125 C 170.6875 1.097656 179.652344 0.925781 188.445312 0 " fill-opacity="1" fill-rule="nonzero"/><path fill="#8c52ff" d="M 359.429688 319.132812 C 364.71875 328.636719 369.996094 337.917969 375.253906 346.980469 C 357.050781 349.582031 338.574219 349.582031 320.375 346.980469 C 320.375 327.347656 320.375 307.71875 320.375 288.085938 C 338.574219 290.683594 357.050781 290.683594 375.253906 288.085938 C 369.996094 298.652344 364.71875 309 359.429688 319.132812 Z M 4.035156 288.085938 C 9.292969 298.652344 14.570312 309 19.859375 319.132812 C 14.570312 328.636719 9.292969 337.917969 4.035156 346.980469 C 22.234375 349.582031 40.710938 349.582031 58.910156 346.980469 C 58.910156 327.347656 58.910156 307.71875 58.910156 288.085938 C 40.710938 290.683594 22.234375 290.683594 4.035156 288.085938 Z M 4.035156 288.085938 " fill-opacity="1" fill-rule="nonzero"/><path fill="#cb6ce6" d="M 342.386719 308.546875 L 342.386719 333.4375 L 320.375 346.980469 L 320.375 308.546875 Z M 36.902344 333.4375 L 58.910156 346.980469 L 58.910156 308.546875 L 36.902344 308.546875 Z M 36.902344 333.4375 " fill-opacity="1" fill-rule="nonzero"/><g clip-path="url(#1610c50979)"><path fill="#8c52ff" d="M 342.386719 271.59375 C 342.386719 292.207031 342.386719 312.820312 342.386719 333.4375 C 241.1875 349.519531 138.097656 349.519531 36.902344 333.4375 C 36.902344 312.820312 36.902344 292.207031 36.902344 271.59375 C 138.097656 287.675781 241.1875 287.675781 342.386719 271.59375 Z M 342.386719 271.59375 " fill-opacity="1" fill-rule="nonzero"/></g><path fill="#ffffff" d="M 206.332031 139.574219 L 201.839844 143.035156 L 200.828125 146.648438 L 197.804688 147.507812 L 194.074219 147.292969 L 195.082031 144.167969 L 198.445312 140.25 L 198.015625 135.136719 L 200.402344 129.960938 L 204.132812 132.074219 L 208.5625 133.234375 L 210.613281 138.839844 Z M 206.332031 139.574219 " fill-opacity="1" fill-rule="evenodd"/><path fill="#ffffff" d="M 212.90625 132.777344 L 205.691406 130.113281 C 203.734375 126.285156 202.9375 124.570312 203.304688 124.96875 L 198.535156 119.734375 L 199.179688 119.210938 L 204.527344 122 L 206.851562 121.449219 L 213.699219 126.867188 L 213.882812 136.574219 Z M 212.90625 132.777344 " fill-opacity="1" fill-rule="evenodd"/><path fill="#ffffff" d="M 216.328125 112.902344 L 212.875 109.199219 L 206.636719 108.554688 L 201.839844 110.945312 L 198.507812 116.332031 L 199.667969 109.472656 L 202.910156 106.289062 L 207.648438 104.667969 L 214.523438 107.390625 L 218.070312 112.078125 L 220.300781 118.996094 L 219.628906 127.019531 L 218.621094 119.210938 Z M 216.328125 112.902344 " fill-opacity="1" fill-rule="evenodd"/><path fill="#ffffff" d="M 106.21875 96.886719 L 107.046875 121.660156 L 110.316406 121.386719 L 112.425781 96.734375 L 115.820312 93.058594 L 135.902344 94.347656 L 198.691406 104.667969 L 117.226562 85.128906 L 116.398438 83.015625 L 109.734375 81.300781 Z M 106.21875 96.886719 " fill-opacity="1" fill-rule="evenodd"/><path fill="#ffffff" d="M 93.597656 145.882812 L 99.527344 145.484375 L 100.472656 143.769531 L 95.09375 138.808594 L 89.132812 135.441406 L 83.507812 137.523438 L 84.027344 140.402344 L 88.183594 143.738281 Z M 93.597656 145.882812 " fill-opacity="1" fill-rule="evenodd"/><g clip-path="url(#1af360083d)"><path fill="#ffffff" d="M 84.578125 132.777344 L 100.78125 109.472656 L 82.378906 132.714844 Z M 84.578125 132.777344 " fill-opacity="1" fill-rule="evenodd"/></g><g clip-path="url(#f4004bbf14)"><path fill="#ffffff" d="M 166.59375 215.273438 L 172.796875 185.816406 L 171.667969 141.625 L 182.976562 109.902344 L 155.128906 138.933594 L 152.011719 148.578125 L 133.914062 155.652344 L 124.867188 169.832031 L 107.902344 177.882812 L 105.363281 169.246094 L 102.398438 161.042969 L 104.9375 157.917969 L 102.398438 151.703125 L 96.804688 147.507812 L 89.378906 151.273438 L 87.269531 156.785156 L 88.125 162.757812 L 94.910156 166.554688 L 99.128906 172.800781 L 100.261719 182.140625 L 95.890625 186.949219 L 83.171875 203.667969 L 82.316406 222.652344 L 86.566406 236.800781 L 103.804688 244.730469 L 126.425781 242.464844 L 149.628906 232.269531 Z M 166.59375 215.273438 " fill-opacity="1" fill-rule="evenodd"/></g><path fill="#ffffff" d="M 199.789062 165.757812 L 194.992188 162.113281 L 194.164062 155.101562 L 197.4375 159.753906 L 199.085938 161.5 L 202.082031 160.519531 L 218.34375 146.402344 L 204.285156 163.09375 Z M 199.789062 165.757812 " fill-opacity="1" fill-rule="evenodd"/><path fill="#ffffff" d="M 204.160156 214.261719 L 180.5625 222.714844 L 160.328125 233.859375 L 152.835938 239.679688 L 151.585938 254.988281 L 173.410156 242.496094 L 199.605469 235.910156 L 227.972656 227.183594 L 248.882812 227.796875 L 267.589844 224.671875 L 288.164062 232.175781 L 279.390625 207.527344 L 258.816406 203.117188 L 230.816406 206.515625 Z M 204.160156 214.261719 " fill-opacity="1" fill-rule="evenodd"/><g clip-path="url(#a91e481282)"><path fill="#ffffff" d="M 211.070312 1.960938 L 226.140625 3.460938 L 242.066406 8.144531 L 256.890625 15.21875 L 271.472656 26.425781 L 286.667969 44.617188 L 298.863281 72.851562 L 300.941406 98.96875 L 295.777344 124.875 C 296.082031 125.03125 291.25 134.675781 281.257812 153.84375 L 271.65625 166.03125 L 281.988281 154.210938 L 297.519531 124.875 L 302.683594 98.726562 L 300.695312 72.117188 L 288.164062 43.515625 L 272.265625 24.773438 L 257.746094 13.8125 L 242.496094 6.523438 L 226.382812 1.46875 L 210.640625 0 L 195.753906 0.488281 L 178.636719 3.828125 L 161.917969 11.207031 L 148.375 18.617188 L 136.421875 32 L 137.035156 36.960938 L 128.382812 44.492188 L 118.324219 69.449219 L 130.308594 45.289062 L 139.386719 37.847656 L 138.808594 32.183594 L 150.636719 19.351562 L 163.871094 12.339844 L 180.226562 5.480469 L 196.304688 2.601562 Z M 211.070312 1.960938 " fill-opacity="1" fill-rule="evenodd"/></g><path fill="#ffffff" d="M 273.152344 203.175781 L 259.335938 163.398438 L 272.085938 203.300781 Z M 273.152344 203.175781 " fill-opacity="1" fill-rule="evenodd"/><g fill="#ffffff" fill-opacity="1"><g transform="translate(100.782784, 312.225039)"><g><path d="M 1.0625 -3.640625 C 1.132812 -4.222656 1.414062 -4.773438 1.90625 -5.296875 C 2.394531 -5.828125 2.921875 -6.0625 3.484375 -6 C 3.785156 -5.957031 4.113281 -5.789062 4.46875 -5.5 C 4.832031 -5.21875 5.15625 -4.910156 5.4375 -4.578125 C 5.71875 -4.253906 6.132812 -3.9375 6.6875 -3.625 C 7.238281 -3.3125 7.835938 -3.113281 8.484375 -3.03125 C 9.285156 -2.9375 10.007812 -3.023438 10.65625 -3.296875 C 11.300781 -3.566406 11.664062 -4.039062 11.75 -4.71875 C 11.84375 -5.394531 11.582031 -6.035156 10.96875 -6.640625 C 10.363281 -7.253906 9.601562 -7.832031 8.6875 -8.375 C 7.769531 -8.914062 6.859375 -9.507812 5.953125 -10.15625 C 5.046875 -10.800781 4.316406 -11.648438 3.765625 -12.703125 C 3.210938 -13.765625 3.019531 -14.96875 3.1875 -16.3125 C 3.457031 -18.457031 4.429688 -19.96875 6.109375 -20.84375 C 7.796875 -21.71875 9.742188 -22.019531 11.953125 -21.75 C 12.484375 -21.675781 13.039062 -21.570312 13.625 -21.4375 C 14.207031 -21.300781 14.851562 -21.097656 15.5625 -20.828125 C 16.269531 -20.566406 16.832031 -20.207031 17.25 -19.75 C 17.664062 -19.300781 17.835938 -18.796875 17.765625 -18.234375 C 17.703125 -17.691406 17.460938 -17.15625 17.046875 -16.625 C 16.640625 -16.09375 16.132812 -15.863281 15.53125 -15.9375 C 15.289062 -15.96875 14.789062 -16.226562 14.03125 -16.71875 C 13.269531 -17.21875 12.40625 -17.53125 11.4375 -17.65625 C 10.382812 -17.78125 9.578125 -17.691406 9.015625 -17.390625 C 8.460938 -17.085938 8.15625 -16.679688 8.09375 -16.171875 C 8.03125 -15.691406 8.21875 -15.226562 8.65625 -14.78125 C 9.09375 -14.332031 9.65625 -13.921875 10.34375 -13.546875 C 11.039062 -13.171875 11.789062 -12.707031 12.59375 -12.15625 C 13.394531 -11.613281 14.125 -11.03125 14.78125 -10.40625 C 15.445312 -9.789062 15.960938 -8.976562 16.328125 -7.96875 C 16.691406 -6.957031 16.796875 -5.835938 16.640625 -4.609375 C 16.367188 -2.429688 15.445312 -0.828125 13.875 0.203125 C 12.300781 1.234375 10.359375 1.601562 8.046875 1.3125 C 6.035156 1.0625 4.332031 0.429688 2.9375 -0.578125 C 1.550781 -1.585938 0.925781 -2.609375 1.0625 -3.640625 Z M 1.0625 -3.640625 "/></g></g></g><g fill="#ffffff" fill-opacity="1"><g transform="translate(117.547268, 314.268077)"><g><path d="M 1.828125 -1.3125 L 3.921875 -21.09375 C 3.960938 -21.570312 4.234375 -21.910156 4.734375 -22.109375 C 5.242188 -22.304688 5.828125 -22.367188 6.484375 -22.296875 C 7.148438 -22.234375 7.707031 -22.050781 8.15625 -21.75 C 8.613281 -21.445312 8.820312 -21.054688 8.78125 -20.578125 L 6.6875 -0.796875 C 6.632812 -0.328125 6.351562 0.0078125 5.84375 0.21875 C 5.34375 0.425781 4.757812 0.492188 4.09375 0.421875 C 3.4375 0.359375 2.878906 0.171875 2.421875 -0.140625 C 1.972656 -0.453125 1.773438 -0.84375 1.828125 -1.3125 Z M 1.828125 -1.3125 "/></g></g></g><g fill="#ffffff" fill-opacity="1"><g transform="translate(125.964564, 315.185403)"><g><path d="M 1.8125 -1.359375 L 3.546875 -21.171875 C 3.585938 -21.648438 3.859375 -21.988281 4.359375 -22.1875 C 4.859375 -22.394531 5.441406 -22.46875 6.109375 -22.40625 C 6.773438 -22.34375 7.332031 -22.164062 7.78125 -21.875 C 8.226562 -21.59375 8.429688 -21.210938 8.390625 -20.734375 L 6.90625 -3.65625 L 14.03125 -3.046875 C 14.457031 -3.003906 14.773438 -2.765625 14.984375 -2.328125 C 15.203125 -1.890625 15.285156 -1.378906 15.234375 -0.796875 C 15.179688 -0.222656 15.007812 0.257812 14.71875 0.65625 C 14.4375 1.050781 14.082031 1.226562 13.65625 1.1875 L 3.796875 0.328125 C 3.210938 0.273438 2.722656 0.101562 2.328125 -0.1875 C 1.941406 -0.488281 1.769531 -0.878906 1.8125 -1.359375 Z M 1.8125 -1.359375 "/></g></g></g><g fill="#ffffff" fill-opacity="1"><g transform="translate(141.590913, 316.568586)"><g><path d="M 1.421875 -20.8125 C 1.453125 -21.351562 1.816406 -21.796875 2.515625 -22.140625 C 3.222656 -22.492188 3.941406 -22.648438 4.671875 -22.609375 C 5.554688 -22.554688 6.0625 -22.222656 6.1875 -21.609375 L 9.578125 -5.3125 L 14.90625 -21.0625 C 15.113281 -21.65625 15.664062 -21.925781 16.5625 -21.875 C 17.289062 -21.832031 17.976562 -21.585938 18.625 -21.140625 C 19.28125 -20.703125 19.59375 -20.210938 19.5625 -19.671875 C 19.550781 -19.609375 19.519531 -19.5 19.46875 -19.34375 L 12.484375 -0.671875 C 12.296875 -0.160156 11.894531 0.210938 11.28125 0.453125 C 10.664062 0.703125 9.972656 0.800781 9.203125 0.75 C 8.429688 0.707031 7.753906 0.523438 7.171875 0.203125 C 6.597656 -0.109375 6.242188 -0.53125 6.109375 -1.0625 L 1.453125 -20.453125 C 1.421875 -20.628906 1.410156 -20.75 1.421875 -20.8125 Z M 1.421875 -20.8125 "/></g></g></g><g fill="#ffffff" fill-opacity="1"><g transform="translate(160.213384, 317.671027)"><g><path d="M 1.75 -1.421875 L 2.578125 -21.296875 C 2.597656 -21.773438 2.851562 -22.128906 3.34375 -22.359375 C 3.832031 -22.597656 4.410156 -22.703125 5.078125 -22.671875 C 5.742188 -22.640625 6.3125 -22.488281 6.78125 -22.21875 C 7.25 -21.945312 7.472656 -21.570312 7.453125 -21.09375 L 6.625 -1.21875 C 6.601562 -0.738281 6.347656 -0.378906 5.859375 -0.140625 C 5.367188 0.0976562 4.789062 0.203125 4.125 0.171875 C 3.457031 0.140625 2.890625 -0.0078125 2.421875 -0.28125 C 1.953125 -0.5625 1.726562 -0.941406 1.75 -1.421875 Z M 1.75 -1.421875 "/></g></g></g><g fill="#ffffff" fill-opacity="1"><g transform="translate(168.703224, 318.079904)"><g><path d="M 1.75 -7.15625 L 2.0625 -21.359375 C 2.070312 -21.835938 2.3125 -22.195312 2.78125 -22.4375 C 3.257812 -22.675781 3.84375 -22.785156 4.53125 -22.765625 C 5.195312 -22.753906 5.765625 -22.617188 6.234375 -22.359375 C 6.710938 -22.097656 6.945312 -21.726562 6.9375 -21.25 L 6.625 -7.046875 C 6.582031 -4.960938 7.5625 -3.898438 9.5625 -3.859375 C 11.570312 -3.816406 12.597656 -4.835938 12.640625 -6.921875 L 12.953125 -21.125 C 12.960938 -21.601562 13.203125 -21.960938 13.671875 -22.203125 C 14.148438 -22.441406 14.734375 -22.550781 15.421875 -22.53125 C 16.085938 -22.519531 16.65625 -22.382812 17.125 -22.125 C 17.601562 -21.863281 17.835938 -21.492188 17.828125 -21.015625 L 17.515625 -6.8125 C 17.460938 -4.269531 16.703125 -2.421875 15.234375 -1.265625 C 13.773438 -0.109375 11.859375 0.441406 9.484375 0.390625 C 7.078125 0.335938 5.171875 -0.296875 3.765625 -1.515625 C 2.367188 -2.734375 1.695312 -4.613281 1.75 -7.15625 Z M 1.75 -7.15625 "/></g></g></g><g fill="#ffffff" fill-opacity="1"><g transform="translate(187.873263, 318.432054)"><g/></g></g><g fill="#ffffff" fill-opacity="1"><g transform="translate(194.347021, 318.502621)"><g><path d="M 1.328125 -7.203125 L 1.203125 -15.5 C 1.160156 -18.039062 1.828125 -19.914062 3.203125 -21.125 C 4.578125 -22.34375 6.425781 -22.96875 8.75 -23 C 11.082031 -23.039062 12.957031 -22.476562 14.375 -21.3125 C 15.789062 -20.144531 16.519531 -18.289062 16.5625 -15.75 L 16.6875 -7.453125 C 16.726562 -4.910156 16.054688 -3.035156 14.671875 -1.828125 C 13.296875 -0.617188 11.441406 0.00390625 9.109375 0.046875 C 6.785156 0.078125 4.914062 -0.484375 3.5 -1.640625 C 2.09375 -2.804688 1.367188 -4.660156 1.328125 -7.203125 Z M 6.203125 -7.28125 C 6.234375 -5.195312 7.179688 -4.171875 9.046875 -4.203125 C 10.921875 -4.234375 11.84375 -5.289062 11.8125 -7.375 L 11.6875 -15.671875 C 11.644531 -17.753906 10.6875 -18.78125 8.8125 -18.75 C 6.945312 -18.71875 6.035156 -17.660156 6.078125 -15.578125 Z M 6.203125 -7.28125 "/></g></g></g><g fill="#ffffff" fill-opacity="1"><g transform="translate(212.8971, 318.205516)"><g><path d="M 1.625 -1.578125 L 0.78125 -21.453125 C 0.757812 -21.847656 0.910156 -22.195312 1.234375 -22.5 C 1.554688 -22.800781 1.988281 -22.96875 2.53125 -23 L 9 -23.265625 C 11.226562 -23.359375 13.035156 -22.851562 14.421875 -21.75 C 15.816406 -20.65625 16.566406 -18.867188 16.671875 -16.390625 L 16.6875 -16.234375 C 16.789062 -13.753906 16.160156 -11.898438 14.796875 -10.671875 C 13.441406 -9.441406 11.609375 -8.773438 9.296875 -8.671875 L 6.203125 -8.546875 L 6.5 -1.78125 C 6.519531 -1.300781 6.296875 -0.921875 5.828125 -0.640625 C 5.359375 -0.359375 4.789062 -0.203125 4.125 -0.171875 C 3.457031 -0.148438 2.878906 -0.257812 2.390625 -0.5 C 1.898438 -0.738281 1.644531 -1.097656 1.625 -1.578125 Z M 6.046875 -12.28125 L 9.140625 -12.40625 C 11.015625 -12.488281 11.910156 -13.570312 11.828125 -15.65625 L 11.8125 -16 C 11.71875 -18.082031 10.734375 -19.082031 8.859375 -19 L 5.765625 -18.875 Z M 6.046875 -12.28125 "/></g></g></g><g fill="#ffffff" fill-opacity="1"><g transform="translate(230.99574, 317.432553)"><g><path d="M 1.578125 -1.625 L 0.203125 -21.46875 C 0.171875 -21.863281 0.285156 -22.210938 0.546875 -22.515625 C 0.804688 -22.816406 1.15625 -22.984375 1.59375 -23.015625 L 8.046875 -23.46875 C 13.160156 -23.820312 15.875 -21.773438 16.1875 -17.328125 C 16.414062 -14.085938 15.304688 -11.890625 12.859375 -10.734375 L 17.140625 -4.109375 C 17.253906 -3.972656 17.320312 -3.789062 17.34375 -3.5625 C 17.382812 -2.957031 17.097656 -2.359375 16.484375 -1.765625 C 15.867188 -1.179688 15.195312 -0.863281 14.46875 -0.8125 C 13.738281 -0.769531 13.195312 -1.039062 12.84375 -1.625 L 8 -9.625 L 5.921875 -9.484375 L 6.4375 -1.953125 C 6.476562 -1.472656 6.265625 -1.085938 5.796875 -0.796875 C 5.335938 -0.503906 4.773438 -0.332031 4.109375 -0.28125 C 3.453125 -0.238281 2.875 -0.332031 2.375 -0.5625 C 1.882812 -0.789062 1.617188 -1.144531 1.578125 -1.625 Z M 5.65625 -13.21875 L 8.75 -13.4375 C 9.664062 -13.5 10.347656 -13.769531 10.796875 -14.25 C 11.242188 -14.738281 11.429688 -15.5 11.359375 -16.53125 C 11.285156 -17.570312 10.992188 -18.296875 10.484375 -18.703125 C 9.972656 -19.117188 9.257812 -19.296875 8.34375 -19.234375 L 5.25 -19.015625 Z M 5.65625 -13.21875 "/></g></g></g><g fill="#ffffff" fill-opacity="1"><g transform="translate(249.525231, 316.126757)"><g><path d="M 1.546875 -1.65625 L -0.359375 -21.421875 C -0.398438 -21.890625 -0.226562 -22.273438 0.15625 -22.578125 C 0.539062 -22.878906 1.023438 -23.054688 1.609375 -23.109375 L 12.703125 -24.1875 C 13.171875 -24.226562 13.550781 -24.054688 13.84375 -23.671875 C 14.132812 -23.285156 14.304688 -22.8125 14.359375 -22.25 C 14.410156 -21.644531 14.328125 -21.125 14.109375 -20.6875 C 13.890625 -20.25 13.554688 -20.007812 13.109375 -19.96875 L 4.75 -19.15625 L 5.25 -13.890625 L 9.9375 -14.34375 C 10.382812 -14.382812 10.753906 -14.226562 11.046875 -13.875 C 11.347656 -13.53125 11.523438 -13.101562 11.578125 -12.59375 C 11.617188 -12.113281 11.53125 -11.671875 11.3125 -11.265625 C 11.101562 -10.867188 10.765625 -10.648438 10.296875 -10.609375 L 5.609375 -10.15625 L 6.125 -4.859375 L 14.484375 -5.671875 C 14.929688 -5.710938 15.304688 -5.535156 15.609375 -5.140625 C 15.910156 -4.753906 16.085938 -4.257812 16.140625 -3.65625 C 16.191406 -3.101562 16.113281 -2.601562 15.90625 -2.15625 C 15.695312 -1.71875 15.359375 -1.476562 14.890625 -1.4375 L 3.796875 -0.359375 C 3.210938 -0.304688 2.703125 -0.390625 2.265625 -0.609375 C 1.828125 -0.828125 1.585938 -1.175781 1.546875 -1.65625 Z M 1.546875 -1.65625 "/></g></g></g><g fill="#ffffff" fill-opacity="1"><g transform="translate(266.616988, 314.487667)"><g><path d="M -0.125 -2 C -0.125 -2.0625 -0.113281 -2.175781 -0.09375 -2.34375 L 3.34375 -22 C 3.445312 -22.53125 3.773438 -22.972656 4.328125 -23.328125 C 4.890625 -23.679688 5.550781 -23.90625 6.3125 -24 C 7.082031 -24.09375 7.78125 -24.035156 8.40625 -23.828125 C 9.03125 -23.617188 9.457031 -23.269531 9.6875 -22.78125 L 17.8125 -4.546875 C 17.875 -4.390625 17.90625 -4.28125 17.90625 -4.21875 C 17.976562 -3.675781 17.703125 -3.164062 17.078125 -2.6875 C 16.453125 -2.21875 15.78125 -1.941406 15.0625 -1.859375 C 14.164062 -1.742188 13.597656 -1.976562 13.359375 -2.5625 L 11.828125 -6.3125 L 5.265625 -5.5 L 4.703125 -1.5 C 4.609375 -0.875 4.113281 -0.503906 3.21875 -0.390625 C 2.5 -0.304688 1.78125 -0.414062 1.0625 -0.71875 C 0.34375 -1.03125 -0.0507812 -1.457031 -0.125 -2 Z M 5.8125 -9.359375 L 10.34375 -9.921875 L 7.078125 -17.953125 Z M 5.8125 -9.359375 "/></g></g></g><g fill="#ffffff" fill-opacity="1"><g transform="translate(100.165713, 330.361246)"><g><path d="M 6.671875 -1.984375 C 6.609375 -1.171875 6.265625 -0.554688 5.640625 -0.140625 C 5.015625 0.265625 4.191406 0.429688 3.171875 0.359375 C 2.085938 0.273438 1.257812 0.0703125 0.6875 -0.25 L 0.765625 -1.296875 C 1.140625 -1.097656 1.546875 -0.9375 1.984375 -0.8125 C 2.429688 -0.6875 2.867188 -0.609375 3.296875 -0.578125 C 4.015625 -0.523438 4.566406 -0.617188 4.953125 -0.859375 C 5.335938 -1.109375 5.546875 -1.472656 5.578125 -1.953125 C 5.597656 -2.273438 5.550781 -2.539062 5.4375 -2.75 C 5.320312 -2.96875 5.117188 -3.175781 4.828125 -3.375 C 4.546875 -3.570312 4.101562 -3.800781 3.5 -4.0625 C 2.675781 -4.4375 2.09375 -4.847656 1.75 -5.296875 C 1.40625 -5.742188 1.257812 -6.304688 1.3125 -6.984375 C 1.363281 -7.703125 1.671875 -8.25 2.234375 -8.625 C 2.804688 -9.007812 3.53125 -9.164062 4.40625 -9.09375 C 5.320312 -9.03125 6.15625 -8.800781 6.90625 -8.40625 L 6.5 -7.5 C 5.757812 -7.875 5.03125 -8.09375 4.3125 -8.15625 C 3.75 -8.195312 3.296875 -8.101562 2.953125 -7.875 C 2.617188 -7.65625 2.4375 -7.328125 2.40625 -6.890625 C 2.382812 -6.566406 2.421875 -6.296875 2.515625 -6.078125 C 2.617188 -5.867188 2.800781 -5.671875 3.0625 -5.484375 C 3.332031 -5.296875 3.75 -5.070312 4.3125 -4.8125 C 5.257812 -4.40625 5.898438 -3.988281 6.234375 -3.5625 C 6.566406 -3.132812 6.710938 -2.609375 6.671875 -1.984375 Z M 6.671875 -1.984375 "/></g></g></g><g fill="#ffffff" fill-opacity="1"><g transform="translate(110.593057, 331.121653)"><g><path d="M 9.59375 -4.03125 C 9.5 -2.5625 9.046875 -1.425781 8.234375 -0.625 C 7.429688 0.175781 6.363281 0.535156 5.03125 0.453125 C 3.675781 0.359375 2.65625 -0.125 1.96875 -1 C 1.289062 -1.882812 1 -3.082031 1.09375 -4.59375 C 1.1875 -6.101562 1.628906 -7.25 2.421875 -8.03125 C 3.222656 -8.820312 4.300781 -9.171875 5.65625 -9.078125 C 6.988281 -8.992188 8 -8.503906 8.6875 -7.609375 C 9.382812 -6.710938 9.6875 -5.519531 9.59375 -4.03125 Z M 2.234375 -4.5 C 2.148438 -3.257812 2.351562 -2.296875 2.84375 -1.609375 C 3.332031 -0.929688 4.082031 -0.554688 5.09375 -0.484375 C 6.125 -0.421875 6.921875 -0.695312 7.484375 -1.3125 C 8.046875 -1.9375 8.367188 -2.867188 8.453125 -4.109375 C 8.535156 -5.359375 8.332031 -6.320312 7.84375 -7 C 7.363281 -7.675781 6.613281 -8.046875 5.59375 -8.109375 C 4.570312 -8.179688 3.773438 -7.90625 3.203125 -7.28125 C 2.640625 -6.664062 2.316406 -5.738281 2.234375 -4.5 Z M 2.234375 -4.5 "/></g></g></g><g fill="#ffffff" fill-opacity="1"><g transform="translate(124.007647, 331.953792)"><g><path d="M 2.359375 0.125 L 1.28125 0.0625 L 1.78125 -9.1875 L 6.921875 -8.90625 L 6.875 -7.953125 L 2.8125 -8.171875 L 2.625 -4.796875 L 6.4375 -4.59375 L 6.390625 -3.640625 L 2.578125 -3.84375 Z M 2.359375 0.125 "/></g></g></g><g fill="#ffffff" fill-opacity="1"><g transform="translate(134.018039, 332.482655)"><g><path d="M 4.125 0.1875 L 3.046875 0.140625 L 3.421875 -8.15625 L 0.484375 -8.296875 L 0.53125 -9.25 L 7.484375 -8.921875 L 7.4375 -7.96875 L 4.5 -8.109375 Z M 4.125 0.1875 "/></g></g></g><g fill="#ffffff" fill-opacity="1"><g transform="translate(144.522863, 332.957178)"><g><path d="M 9.359375 0.328125 L 8.296875 0.296875 L 6.640625 -5.984375 C 6.566406 -6.265625 6.484375 -6.613281 6.390625 -7.03125 C 6.296875 -7.457031 6.242188 -7.710938 6.234375 -7.796875 C 6.117188 -7.242188 5.953125 -6.640625 5.734375 -5.984375 L 3.703125 0.125 L 2.640625 0.09375 L 0.5 -9.265625 L 1.640625 -9.21875 L 2.90625 -3.453125 C 3.070312 -2.640625 3.191406 -1.90625 3.265625 -1.25 C 3.410156 -2.007812 3.609375 -2.765625 3.859375 -3.515625 L 5.71875 -9.078125 L 6.859375 -9.03125 L 8.40625 -3.28125 C 8.582031 -2.625 8.722656 -1.878906 8.828125 -1.046875 C 8.929688 -1.648438 9.113281 -2.378906 9.375 -3.234375 L 11.03125 -8.890625 L 12.171875 -8.859375 Z M 9.359375 0.328125 "/></g></g></g><g fill="#ffffff" fill-opacity="1"><g transform="translate(159.869196, 333.464324)"><g><path d="M 7.09375 0.171875 L 6.03125 -2.8125 L 2.3125 -2.90625 L 1.09375 0.03125 L 0 0 L 3.890625 -9.21875 L 4.796875 -9.203125 L 8.21875 0.203125 Z M 5.703125 -3.78125 L 4.6875 -6.6875 C 4.5625 -7.039062 4.429688 -7.488281 4.296875 -8.03125 C 4.191406 -7.625 4.046875 -7.179688 3.859375 -6.703125 L 2.703125 -3.859375 Z M 5.703125 -3.78125 "/></g></g></g><g fill="#ffffff" fill-opacity="1"><g transform="translate(171.410019, 333.723367)"><g><path d="M 2.421875 -3.828125 L 2.359375 0.03125 L 1.28125 0.015625 L 1.421875 -9.25 L 3.953125 -9.203125 C 5.085938 -9.191406 5.921875 -8.960938 6.453125 -8.515625 C 6.992188 -8.078125 7.257812 -7.421875 7.25 -6.546875 C 7.226562 -5.316406 6.59375 -4.5 5.34375 -4.09375 L 7.796875 0.109375 L 6.53125 0.09375 L 4.34375 -3.796875 Z M 2.421875 -4.75 L 3.890625 -4.71875 C 4.648438 -4.707031 5.207031 -4.847656 5.5625 -5.140625 C 5.925781 -5.441406 6.113281 -5.894531 6.125 -6.5 C 6.132812 -7.113281 5.960938 -7.554688 5.609375 -7.828125 C 5.253906 -8.109375 4.675781 -8.257812 3.875 -8.28125 L 2.484375 -8.296875 Z M 2.421875 -4.75 "/></g></g></g><g fill="#ffffff" fill-opacity="1"><g transform="translate(182.760856, 333.869718)"><g><path d="M 6.4375 0.03125 L 1.28125 0 L 1.328125 -9.265625 L 6.484375 -9.234375 L 6.484375 -8.28125 L 2.40625 -8.296875 L 2.390625 -5.3125 L 6.21875 -5.296875 L 6.203125 -4.34375 L 2.375 -4.359375 L 2.359375 -0.953125 L 6.4375 -0.9375 Z M 6.4375 0.03125 "/></g></g></g><g fill="#ffffff" fill-opacity="1"><g transform="translate(193.299244, 333.907402)"><g/></g></g><g fill="#ffffff" fill-opacity="1"><g transform="translate(199.989337, 333.890688)"><g><path d="M 6.4375 -0.0625 L 1.28125 -0.015625 L 1.203125 -9.28125 L 6.359375 -9.328125 L 6.359375 -8.375 L 2.28125 -8.328125 L 2.3125 -5.34375 L 6.140625 -5.390625 L 6.15625 -4.4375 L 2.328125 -4.390625 L 2.34375 -0.984375 L 6.421875 -1.03125 Z M 6.4375 -0.0625 "/></g></g></g><g fill="#ffffff" fill-opacity="1"><g transform="translate(210.538533, 333.787092)"><g><path d="M 8.515625 -0.15625 L 7.28125 -0.140625 L 2.078125 -7.828125 L 2.03125 -7.828125 C 2.101562 -6.910156 2.148438 -6.070312 2.171875 -5.3125 L 2.265625 -0.046875 L 1.28125 -0.03125 L 1.109375 -9.296875 L 2.3125 -9.3125 L 7.515625 -1.65625 L 7.5625 -1.65625 C 7.550781 -1.769531 7.523438 -2.132812 7.484375 -2.75 C 7.453125 -3.375 7.429688 -3.820312 7.421875 -4.09375 L 7.328125 -9.40625 L 8.34375 -9.421875 Z M 8.515625 -0.15625 "/></g></g></g><g fill="#ffffff" fill-opacity="1"><g transform="translate(223.657216, 333.523741)"><g><path d="M 5.203125 -5.015625 L 8.359375 -5.109375 L 8.484375 -0.59375 C 8.003906 -0.425781 7.507812 -0.296875 7 -0.203125 C 6.5 -0.109375 5.914062 -0.0507812 5.25 -0.03125 C 3.84375 0.0078125 2.738281 -0.367188 1.9375 -1.171875 C 1.132812 -1.984375 0.707031 -3.144531 0.65625 -4.65625 C 0.632812 -5.613281 0.804688 -6.460938 1.171875 -7.203125 C 1.535156 -7.941406 2.070312 -8.515625 2.78125 -8.921875 C 3.5 -9.328125 4.34375 -9.539062 5.3125 -9.5625 C 6.300781 -9.59375 7.226562 -9.441406 8.09375 -9.109375 L 7.703125 -8.140625 C 6.859375 -8.472656 6.050781 -8.625 5.28125 -8.59375 C 4.144531 -8.5625 3.269531 -8.203125 2.65625 -7.515625 C 2.050781 -6.828125 1.765625 -5.890625 1.796875 -4.703125 C 1.835938 -3.453125 2.171875 -2.507812 2.796875 -1.875 C 3.421875 -1.238281 4.328125 -0.9375 5.515625 -0.96875 C 6.148438 -0.988281 6.773438 -1.085938 7.390625 -1.265625 L 7.3125 -4.109375 L 5.234375 -4.046875 Z M 5.203125 -5.015625 "/></g></g></g><g fill="#ffffff" fill-opacity="1"><g transform="translate(236.425392, 333.123654)"><g><path d="M 1.28125 -0.046875 L 0.9375 -9.3125 L 2.015625 -9.359375 L 2.359375 -0.09375 Z M 1.28125 -0.046875 "/></g></g></g><g fill="#ffffff" fill-opacity="1"><g transform="translate(243.362813, 332.862736)"><g><path d="M 8.5 -0.390625 L 7.28125 -0.328125 L 1.859375 -7.859375 L 1.8125 -7.859375 C 1.914062 -6.960938 1.988281 -6.132812 2.03125 -5.375 L 2.265625 -0.109375 L 1.28125 -0.0625 L 0.859375 -9.3125 L 2.0625 -9.359375 L 7.46875 -1.859375 L 7.515625 -1.859375 C 7.492188 -1.972656 7.457031 -2.335938 7.40625 -2.953125 C 7.351562 -3.578125 7.316406 -4.023438 7.296875 -4.296875 L 7.0625 -9.59375 L 8.078125 -9.640625 Z M 8.5 -0.390625 "/></g></g></g><g fill="#ffffff" fill-opacity="1"><g transform="translate(256.465398, 332.240426)"><g><path d="M 6.421875 -0.359375 L 1.28125 -0.078125 L 0.765625 -9.328125 L 5.90625 -9.609375 L 5.953125 -8.65625 L 1.890625 -8.421875 L 2.0625 -5.4375 L 5.875 -5.65625 L 5.921875 -4.71875 L 2.109375 -4.5 L 2.3125 -1.09375 L 6.375 -1.328125 Z M 6.421875 -0.359375 "/></g></g></g><g fill="#ffffff" fill-opacity="1"><g transform="translate(266.993573, 331.640917)"><g><path d="M 6.421875 -0.40625 L 1.28125 -0.078125 L 0.6875 -9.328125 L 5.828125 -9.65625 L 5.890625 -8.703125 L 1.828125 -8.453125 L 2.015625 -5.46875 L 5.828125 -5.703125 L 5.890625 -4.75 L 2.078125 -4.515625 L 2.296875 -1.125 L 6.359375 -1.375 Z M 6.421875 -0.40625 "/></g></g></g><g fill="#ffffff" fill-opacity="1"><g transform="translate(277.517564, 330.950644)"><g><path d="M 2.078125 -4.015625 L 2.359375 -0.171875 L 1.28125 -0.09375 L 0.609375 -9.328125 L 3.125 -9.515625 C 4.257812 -9.597656 5.113281 -9.445312 5.6875 -9.0625 C 6.269531 -8.675781 6.59375 -8.046875 6.65625 -7.171875 C 6.738281 -5.941406 6.171875 -5.066406 4.953125 -4.546875 L 7.78125 -0.578125 L 6.515625 -0.484375 L 3.984375 -4.15625 Z M 2.015625 -4.9375 L 3.46875 -5.046875 C 4.226562 -5.097656 4.769531 -5.285156 5.09375 -5.609375 C 5.425781 -5.941406 5.570312 -6.410156 5.53125 -7.015625 C 5.488281 -7.628906 5.273438 -8.054688 4.890625 -8.296875 C 4.515625 -8.546875 3.925781 -8.644531 3.125 -8.59375 L 1.75 -8.484375 Z M 2.015625 -4.9375 "/></g></g></g></svg>